<svg width="25" height="25" viewBox="0 0 36 36" fill="none" xmlns="http://www.w3.org/2000/svg"><path d="M30 13.4587C30 6.94954 24.6835 1.5 18 1.5C11.3165 1.5 6 6.79817 6 13.4587C6 19.9679 11.3165 25.4174 18 25.4174C19.519 25.4174 21.038 25.1147 22.2532 24.6606V31.3211L18.7595 29.2018C18.3038 28.8991 17.6962 28.8991 17.2405 29.2018L13.5949 31.1697V26.9312C13.5949 26.0229 12.9873 25.4174 12.0759 25.4174C11.1646 25.4174 10.557 26.0229 10.557 26.9312V31.7752C10.557 32.6835 11.0127 33.5917 11.9241 34.0459C12.8354 34.5 13.7468 34.5 14.6582 34.0459L18 32.078L21.3418 34.0459C21.7975 34.3486 22.2532 34.5 22.7089 34.5C23.1646 34.5 23.6203 34.3486 24.0759 34.1973C24.9873 33.7431 25.443 32.8349 25.443 31.9266V22.9954C28.1772 20.7248 30 17.2431 30 13.4587ZM9.03797 13.4587C9.03797 8.4633 12.9873 4.52752 18 4.52752C22.8608 4.52752 26.962 8.4633 26.962 13.4587C26.962 18.4541 23.0127 22.3899 18 22.3899C12.9873 22.3899 9.03797 18.3028 9.03797 13.4587Z" fill="#d4d4d4"/></svg>

