<!-- <svg width="20" height="20" viewBox="0 0 36 36" fill="none" xmlns="http://www.w3.org/2000/svg"><path fill-rule="evenodd" clip-rule="evenodd" d="M8.04545 6C6.94648 6 6 6.962 6 8V11.3654C6 12.4717 6.88844 13.3928 8.10414 13.5H11.4545C12.5535 13.5 13.5 12.538 13.5 11.5V8C13.5 6.88502 12.614 6 11.5909 6H8.04545ZM3 8C3 5.26877 5.32624 3 8.04545 3H11.5909C14.386 3 16.5 5.34575 16.5 8V11.5C16.5 14.2312 14.1738 16.5 11.4545 16.5H8.04545C8.01025 16.5 7.97506 16.4988 7.93995 16.4963C5.36141 16.3145 3 14.2834 3 11.3654V8ZM24.5455 6C23.4465 6 22.5 6.962 22.5 8V11.5C22.5 12.538 23.4465 13.5 24.5455 13.5H27.9545C29.0535 13.5 30 12.538 30 11.5V8C30 6.88502 29.114 6 28.0909 6H24.5455ZM19.5 8C19.5 5.26877 21.8262 3 24.5455 3H28.0909C30.886 3 33 5.34575 33 8V11.5C33 14.2312 30.6738 16.5 27.9545 16.5H24.5455C21.8262 16.5 19.5 14.2312 19.5 11.5V8ZM8.04545 22.5C6.94648 22.5 6 23.462 6 24.5V28C6 28.9396 6.85179 29.89 8.10402 30H11.4545C12.5535 30 13.5 29.038 13.5 28V24.5C13.5 23.385 12.614 22.5 11.5909 22.5H8.04545ZM3 24.5C3 21.7688 5.32624 19.5 8.04545 19.5H11.5909C14.386 19.5 16.5 21.8457 16.5 24.5V28C16.5 30.7312 14.1738 33 11.4545 33H8.04545C8.01025 33 7.97506 32.9988 7.93995 32.9963C5.3996 32.8172 3 30.8179 3 28V24.5ZM24.5455 22.5C23.4465 22.5 22.5 23.462 22.5 24.5V28C22.5 29.038 23.4465 30 24.5455 30H27.9545C29.0535 30 30 29.038 30 28V24.5C30 23.385 29.114 22.5 28.0909 22.5H24.5455ZM19.5 24.5C19.5 21.7688 21.8262 19.5 24.5455 19.5H28.0909C30.886 19.5 33 21.8457 33 24.5V28C33 30.7312 30.6738 33 27.9545 33H24.5455C21.8262 33 19.5 30.7312 19.5 28V24.5Z" fill="#d1d5db"/></svg> -->
<svg stroke="#d1d5db" fill="none" stroke-width="2" viewBox="0 0 24 24" stroke-linecap="round" stroke-linejoin="round" height="20" width="20" xmlns="http://www.w3.org/2000/svg"><rect width="8" height="8" x="3" y="3" rx="2"></rect><path d="M7 11v4a2 2 0 0 0 2 2h4"></path><rect width="8" height="8" x="13" y="13" rx="2"></rect></svg>