<svg width="20" height="20" viewBox="0 0 36 36" fill="none" xmlns="http://www.w3.org/2000/svg"><path d="M32.5471 18.6527C31.9433 18.0549 30.8866 18.0549 30.2828 18.6527L21.5274 27.3209L20.4708 26.2747C19.2631 25.0791 17.9045 24.3319 16.5459 23.8835C14.2816 23.2857 11.8663 22.9868 10.0549 22.9868C9.75297 22.9868 9.30011 22.6879 9.30011 22.389L6.28101 8.49008L13.074 15.2154C13.5268 15.5143 13.8287 15.6637 14.2816 15.6637C14.7345 15.6637 15.0364 15.5143 15.3383 15.2154C15.9421 14.6176 15.9421 13.5714 15.3383 12.9736L8.54533 6.39777L22.5841 9.38679C22.886 9.53624 23.1879 9.83514 23.1879 10.134C23.1879 11.778 23.4899 14.0198 24.0937 16.2615C24.3956 17.4571 24.9994 18.5033 25.7542 19.5494C26.207 20.1472 27.2637 20.2967 27.8675 19.8483C28.4714 19.4 28.6223 18.3538 28.1695 17.756C27.5656 17.0088 27.2637 16.2615 26.9618 15.5143C26.5089 13.7209 26.207 11.6285 26.207 10.134C26.0561 8.34063 24.8484 6.84612 23.037 6.54722L7.6396 3.10986C6.43197 2.81095 5.07337 3.10986 4.16764 4.15601C3.11096 5.05272 2.80905 6.39777 3.11096 7.59338L6.43197 22.9868C6.73388 24.7802 8.24342 25.9758 10.0549 26.1253C11.5644 26.1253 13.8287 26.4242 15.7912 27.022C16.6969 27.3209 17.6026 27.9187 18.3574 28.6659L19.4141 29.7121L18.8103 30.3099C18.2064 30.9077 18.2064 31.9538 18.8103 32.5516C19.1122 32.8505 19.565 33 19.8669 33C20.1688 33 20.6217 32.8505 20.9236 32.5516L32.5471 21.0439C33.151 20.2967 33.151 19.2505 32.5471 18.6527Z" fill="#d1d5db"/></svg>